<?xml version="1.0" standalone="no"?>
<!DOCTYPE svg PUBLIC "-//W3C//DTD SVG 20010904//EN"
 "http://www.w3.org/TR/2001/REC-SVG-20010904/DTD/svg10.dtd">
<svg version="1.0" xmlns="http://www.w3.org/2000/svg"
 width="260.000000pt" height="260.000000pt" viewBox="0 0 260.000000 260.000000"
 preserveAspectRatio="xMidYMid meet">
<metadata>
Created by potrace 1.11, written by Peter Selinger 2001-2013
</metadata>
<g transform="translate(0.000000,260.000000) scale(0.100000,-0.100000)"
fill="#000000" stroke="none">
<path d="M565 2355 c-171 -37 -313 -155 -401 -330 -61 -123 -84 -222 -90 -375
-5 -143 12 -234 65 -336 81 -160 189 -258 491 -444 162 -100 261 -167 314
-212 143 -121 270 -263 328 -366 l30 -53 20 38 c35 67 124 175 225 275 151
148 178 169 478 364 33 21 65 41 70 44 85 42 276 216 335 303 17 27 46 85 62
130 28 73 31 95 33 207 3 156 -20 279 -76 398 -38 83 -118 193 -159 222 -12 8
-32 23 -43 34 -29 25 -140 75 -201 91 -74 19 -227 13 -306 -13 -154 -51 -294
-169 -389 -331 l-55 -92 -28 57 c-54 108 -133 203 -243 293 -37 30 -159 83
-223 96 -82 18 -157 18 -237 0z"/>
</g>
</svg>
